<svg width="156" height="52" viewBox="0 0 156 52" fill="none" xmlns="http://www.w3.org/2000/svg">
<path fill-rule="evenodd" clip-rule="evenodd" d="M156 26.2684V25.394C155.992 25.2478 155.98 25.1135 155.963 24.9911L155.955 24.9255L155.89 24.8837C154.844 24.2331 153.503 23.8541 152.153 23.8242C152.124 23.6392 151.964 22.3261 151.938 22.141C153.218 21.762 154.436 21.0338 155.293 20.1027L155.34 20.052L155.329 19.9893C155.27 19.482 155.078 18.7896 154.915 18.3658L154.889 18.2942L154.819 18.2793C153.655 17.9331 152.248 17.942 150.972 18.2793C150.881 18.1121 150.416 16.9094 150.349 16.7274C151.49 15.9962 152.482 14.9696 153.088 13.8624L153.128 13.8027L153.088 13.7192C152.922 13.2984 152.584 12.6806 152.288 12.2837L152.248 12.227H152.192C150.974 12.2031 149.633 12.5881 148.443 13.2596C148.325 13.1074 147.564 12.0539 147.457 11.9017C148.373 10.9049 149.094 9.63056 149.396 8.37713L149.419 8.31147L149.368 8.25477C149.094 7.87575 148.61 7.34454 148.249 7.06699L148.195 7.0073L148.142 7.03715C146.947 7.34453 145.735 8.09063 144.782 9.06353C144.63 8.94117 143.618 8.10853 143.48 7.99811C144.111 6.8163 144.486 5.43155 144.486 4.16021V3.98712L144.433 3.95429C144.069 3.65287 143.48 3.29773 143.06 3.10971L142.995 3.07987L142.933 3.1127C141.87 3.74538 140.892 4.78395 140.213 5.98068C140.041 5.90607 138.815 5.3659 138.657 5.29726C138.815 4.62876 138.911 3.9334 138.925 3.24103C138.925 2.5397 138.838 1.86523 138.657 1.24448L138.638 1.16689L138.584 1.146C138.167 0.954998 137.516 0.766984 137.037 0.713265L136.977 0.692374L136.938 0.737139C136.056 1.63842 135.362 2.90976 134.985 4.26168C134.804 4.24079 133.544 4.07068 133.35 4.02592C133.35 2.64714 132.983 1.22359 132.346 0.119375L132.31 0.0626718L132.251 0.0417812C132.034 0.0149213 131.76 0 131.487 0H131.433C131.157 0 130.881 0.0149213 130.658 0.0417812L130.593 0.0626718L130.565 0.119375C129.934 1.22359 129.57 2.64714 129.542 4.03785C129.37 4.07068 128.079 4.24079 127.899 4.26168C127.53 2.90976 126.833 1.62648 125.957 0.731171L125.903 0.683421L125.827 0.692374C125.362 0.766984 124.702 0.954998 124.305 1.12809L124.243 1.146L124.235 1.22359C124.054 1.85031 123.972 2.52776 123.972 3.24103C123.961 3.92445 124.063 4.61682 124.223 5.28532C124.054 5.35396 122.825 5.91502 122.662 5.98068C121.968 4.78395 120.979 3.73643 119.928 3.1127L119.855 3.07987L119.809 3.10971C119.384 3.29176 118.783 3.65287 118.428 3.94534L118.369 3.98712V4.17513C118.369 5.41066 118.733 6.80436 119.384 7.99811C119.243 8.10853 118.299 8.87552 118.161 8.98892C117.216 8.02497 116.004 7.27589 114.804 6.9506L114.75 6.94165L114.694 6.97746C114.336 7.27589 113.845 7.78025 113.549 8.16822L113.524 8.22492L113.538 8.27864C113.84 9.53208 114.539 10.7975 115.46 11.8092C115.353 11.9584 114.558 13.0835 114.451 13.2208C113.287 12.5433 111.94 12.1524 110.717 12.1703H110.643L110.601 12.227C110.336 12.609 109.998 13.2148 109.809 13.6624L109.781 13.7311L109.809 13.8027C110.407 14.9189 111.41 15.9515 112.554 16.6767C112.484 16.8587 112.01 18.0554 111.94 18.2226C110.643 17.8883 109.234 17.8764 108.07 18.2375L108.005 18.2554L107.985 18.3181C107.805 18.7418 107.622 19.4253 107.566 19.9356L107.554 20.0072L107.591 20.052C108.456 20.9682 109.674 21.6994 110.951 22.0843C110.931 22.2634 110.77 23.5914 110.742 23.7795C109.395 23.8004 108.039 24.1794 106.988 24.83L106.934 24.8598L106.929 24.9374C106.9 25.1851 106.892 25.4776 106.892 25.773C106.892 26.0774 106.9 26.3789 106.929 26.6086L106.934 26.6833L106.988 26.7191C108.039 27.3786 109.395 27.7427 110.742 27.7606C110.762 27.9516 110.951 29.3155 110.965 29.5065C109.674 29.9094 108.467 30.6346 107.608 31.5537L107.566 31.6134L107.58 31.691C107.653 32.1834 107.828 32.8878 107.985 33.3056L108.022 33.3623L108.078 33.3802C109.257 33.7294 110.66 33.7174 111.951 33.3802C112.03 33.5503 112.515 34.753 112.588 34.935C111.455 35.6483 110.46 36.6809 109.851 37.8L109.826 37.8597L109.851 37.9254C110.035 38.3701 110.373 38.9968 110.655 39.3907L110.697 39.4325H110.762C111.968 39.4653 113.33 39.0684 114.494 38.382C114.606 38.5461 115.396 39.6205 115.503 39.7697C114.584 40.7605 113.879 42.0319 113.566 43.2793L113.549 43.345L113.589 43.4107C113.879 43.7956 114.344 44.2881 114.702 44.5925L114.767 44.6372L114.829 44.6163C116.004 44.3 117.225 43.5718 118.18 42.6019C118.324 42.7153 119.37 43.5479 119.508 43.6613C118.879 44.879 118.513 46.2697 118.513 47.5321V47.6634L118.561 47.7111C118.933 48.0066 119.508 48.3528 119.945 48.5587L120.012 48.5766L120.069 48.5438C121.123 47.926 122.123 46.8695 122.814 45.6549C122.978 45.7295 124.096 46.207 124.263 46.2816C124.096 46.9471 124.003 47.6306 124.003 48.314C124.003 49.0093 124.096 49.7107 124.277 50.3374L124.297 50.3941L124.347 50.4209C124.773 50.606 125.404 50.8 125.883 50.8746L125.957 50.8865L126.002 50.8388C126.878 49.9285 127.575 48.6542 127.93 47.3261C128.107 47.3381 129.404 47.5321 129.587 47.55C129.615 48.9526 129.985 50.3762 130.599 51.4774L130.641 51.5371L130.698 51.546C131.163 51.6147 131.848 51.6147 132.273 51.546L132.346 51.5371L132.38 51.4774C133.017 50.3762 133.381 48.9526 133.403 47.55C133.578 47.5142 134.804 47.3381 134.965 47.3261C135.329 48.6631 136.019 49.9434 136.918 50.8417L136.958 50.8955L137.031 50.8865C137.496 50.8 138.167 50.6239 138.564 50.4508L138.626 50.415L138.638 50.3523C138.798 49.7256 138.911 49.0302 138.911 48.3349C138.894 47.6455 138.798 46.9471 138.638 46.2816C138.798 46.207 139.985 45.6728 140.148 45.5982C140.833 46.7919 141.837 47.8365 142.882 48.4751L142.953 48.499L142.995 48.4811C143.423 48.299 144.021 47.935 144.379 47.6306L144.452 47.5888V47.4157C144.452 46.1682 144.072 44.7864 143.449 43.5867C143.593 43.4733 144.568 42.6735 144.709 42.5601C145.664 43.53 146.893 44.2672 148.054 44.5925L148.142 44.6104L148.184 44.5746C148.545 44.2672 149.041 43.7598 149.309 43.3748L149.345 43.3301L149.326 43.2644C149.041 42.011 148.336 40.7367 147.409 39.7339C147.516 39.5877 148.302 38.4954 148.41 38.3492C149.585 39.0356 150.935 39.4146 152.141 39.3997H152.217L152.248 39.34C152.544 38.961 152.874 38.3253 153.052 37.8896L153.071 37.8239L153.04 37.7612C152.48 36.66 151.479 35.6304 150.349 34.8813C150.397 34.7052 150.873 33.5145 150.935 33.3444C152.226 33.6816 153.618 33.6935 154.802 33.3354L154.864 33.3265L154.884 33.2548C155.073 32.8161 155.245 32.1387 155.312 31.6313V31.5746L155.276 31.5179C154.424 30.5898 153.201 29.8676 151.938 29.4856C151.964 29.3035 152.11 28.0203 152.141 27.8382C153.497 27.7994 154.844 27.4293 155.89 26.7758L155.955 26.74L155.963 26.6743C155.98 26.5519 155.992 26.4147 156 26.2684ZM144.345 36.7376L144.709 37.3434L145.044 37.9552L145.492 37.3434L145.611 37.1912L144.345 36.7376ZM126.298 42.3482C126.281 42.2557 126.244 42.1841 126.14 42.1333L125.362 41.8319L125.187 42.3482L125.125 42.5362L125.12 42.5482L125.827 42.8257C126.022 42.9152 126.208 42.7332 126.275 42.5362C126.298 42.4795 126.318 42.4139 126.298 42.3482ZM132.363 44.5119L132.124 43.8911L131.881 43.2197L131.67 43.8911L131.464 44.5537L132.363 44.5119ZM140.766 41.8647C140.766 41.6708 140.718 41.4947 140.63 41.3276C140.374 40.8262 139.765 40.665 139.291 40.9515C138.959 41.1395 138.787 41.4947 138.787 41.8647C138.798 42.0319 138.838 42.2199 138.931 42.3781C138.959 42.4288 138.99 42.4795 139.038 42.5362C139.334 42.9093 139.861 42.9958 140.261 42.7481C140.374 42.6914 140.461 42.6168 140.532 42.5362C140.681 42.3482 140.766 42.0945 140.766 41.8647ZM147.401 35.52L145.143 34.2158L144.853 34.7619L147.564 36.3496L148.61 34.3829L148.142 34.1233L147.401 35.52ZM117.56 33.8905L114.902 35.52C114.998 35.7169 115.1 35.9467 115.218 36.1348L117.879 34.4993C117.749 34.2546 117.676 34.1233 117.56 33.8905ZM119.265 36.4929L117.825 37.8L118.561 35.5618C118.428 35.3678 118.369 35.2365 118.234 35.0604L115.655 36.8988C115.768 37.0808 115.911 37.2479 116.033 37.4359L117.583 36.3079L116.856 38.564C116.982 38.7133 117.109 38.9401 117.287 39.0923L119.674 36.9435C119.542 36.7943 119.384 36.66 119.265 36.4929ZM120.844 38.9669L119.206 41.0082L118.696 40.5457L120.387 38.564C120.119 38.3014 119.917 38.0656 119.654 37.8239L120.032 37.427C120.678 38.0656 121.244 38.564 121.957 39.1639L121.63 39.6026C121.371 39.3907 121.103 39.1848 120.844 38.9669ZM122.766 40.4979C123.186 40.7367 123.595 40.9873 124.054 41.2142L124.33 40.7367C123.693 40.3935 123.099 39.9995 122.566 39.6086L120.813 42.3094C121.478 42.772 122.084 43.157 122.766 43.5718L123.048 43.0943L121.639 42.2199L122.115 41.5156L123.048 42.1065L123.321 41.6469C123.023 41.4738 122.707 41.2738 122.38 41.062L122.766 40.4979ZM126.878 42.3482V42.5243C126.833 42.957 126.551 43.3987 126.098 43.4524L126.205 44.9655C125.993 44.9148 125.754 44.8431 125.531 44.7417L125.506 43.3181L124.897 43.0436L124.404 44.3C124.204 44.2314 124.003 44.1657 123.809 44.0642L124.435 42.5362L124.511 42.3482L125.018 41.0858L126.405 41.6469C126.715 41.7633 126.856 42.0528 126.878 42.3482ZM129.539 42.3781L129.317 44.3537L128.412 42.1871C128.2 42.1453 128.068 42.0886 127.854 42.0528L127.146 45.246C127.366 45.3087 127.575 45.3326 127.8 45.3744L128.181 43.4107L129.097 45.5982C129.305 45.631 129.539 45.6997 129.782 45.6907L130.12 42.393C129.942 42.384 129.731 42.4139 129.539 42.3781ZM132.769 43.8911L133.44 45.5982C133.22 45.6071 133.017 45.631 132.82 45.6549L132.614 45.1028L131.275 45.1416L131.12 45.7176C130.906 45.6997 130.706 45.6907 130.495 45.6907L131.072 43.8911L131.484 42.5243L131.504 42.4795L132.186 42.4497L132.222 42.5362L132.769 43.8911ZM135.726 41.8886C134.824 42.0945 134.133 42.2676 133.24 42.4139L133.322 42.957C133.651 42.9033 133.953 42.8615 134.303 42.8138L134.754 45.44L135.416 45.3087L134.878 42.6914C135.219 42.6019 135.534 42.5124 135.873 42.4288L135.726 41.8886ZM136.459 41.6141L137.482 44.685C137.682 44.6104 137.896 44.5477 138.096 44.4552L137.104 41.3992C136.831 41.4947 136.707 41.5365 136.459 41.6141ZM141.112 41.056C141.245 41.2977 141.31 41.5782 141.318 41.8647C141.318 42.0886 141.273 42.3154 141.186 42.5243C141.042 42.8257 140.83 43.0943 140.532 43.2734C139.81 43.718 138.877 43.4524 138.437 42.6735C138.423 42.6287 138.404 42.578 138.375 42.5243C138.285 42.3154 138.243 42.0886 138.223 41.8647C138.243 41.2888 138.511 40.7605 139.001 40.4621C139.734 40.0234 140.681 40.286 141.112 41.056ZM142.248 38.003L143.528 39.4534L141.38 38.7879C141.202 38.9311 141.084 38.9789 140.923 39.1251L142.795 41.7633C142.953 41.632 143.116 41.4738 143.268 41.3395L142.133 39.7548L144.303 40.4382C144.452 40.3039 144.664 40.1517 144.81 39.9577L142.646 37.5553C142.533 37.6866 142.398 37.8597 142.248 38.003ZM143.996 36.0005L147.071 37.0599C146.997 37.1554 146.941 37.2479 146.876 37.3434C146.823 37.418 146.758 37.4897 146.716 37.5852L146.177 37.3822L145.337 38.4835L145.645 38.9878C145.521 39.137 145.377 39.2982 145.219 39.4653L144.001 37.3434L143.55 36.5615L143.996 36.0005ZM132.499 7.99811C132.837 8.01602 133.147 8.05482 133.463 8.09958L133.296 7.42511L133.088 6.72677L132.778 7.42511L132.499 7.99811ZM125.582 8.29953C125.624 8.87552 126.109 9.29333 126.636 9.24558C127.157 9.18888 127.546 8.75316 127.546 8.20403C127.563 8.17718 127.546 8.14435 127.546 8.10853C127.501 7.53255 127.028 7.12668 126.478 7.1804C125.957 7.21919 125.562 7.65491 125.582 8.20403V8.29953ZM136.132 7.99811L136.822 8.23388C137.011 8.29058 137.262 7.97722 137.262 7.70564C137.262 7.57732 137.22 7.46391 137.054 7.42511C136.8 7.32066 136.622 7.2759 136.346 7.20129L136.202 7.70564L136.132 7.99811ZM122.273 9.07547L122.36 9.22767L122.673 9.79769L123.321 9.43956C123.383 9.40674 123.417 9.32616 123.428 9.22767C123.44 8.92028 123.228 8.50247 122.921 8.69646C122.682 8.83075 122.535 8.92028 122.273 9.07547ZM125.018 8.35624V8.20403C125.004 7.36841 125.613 6.67902 126.416 6.61336C127.265 6.52682 128.017 7.1804 128.088 8.07571V8.20403C128.088 9.03966 127.487 9.75292 126.673 9.8335C125.847 9.90811 125.091 9.25752 125.018 8.35624ZM131.989 9.09935C131.729 9.09636 131.611 9.09636 131.357 9.09636L132.124 7.42511L132.82 5.90607L133.511 5.98068L133.874 7.42511L134.373 9.36495C134.142 9.32019 133.962 9.28139 133.742 9.26945L133.564 8.66064C133.107 8.58603 132.696 8.56216 132.273 8.54425L131.989 9.09935ZM135.706 9.69622C135.458 9.61862 135.275 9.58878 135.002 9.50522L135.506 7.70564L135.873 6.42535C136.402 6.56263 136.907 6.74169 137.409 6.91479C137.693 7.0073 137.848 7.34454 137.877 7.70564C137.896 8.19807 137.662 8.72928 137.192 8.8397L137.375 10.2901C137.155 10.1946 136.991 10.123 136.746 10.0215L136.586 8.75316L135.994 8.56216L135.706 9.69622ZM121.596 9.22767L121.424 8.90536C121.875 8.60394 122.36 8.3443 122.825 8.08168C123.375 7.76235 124.153 8.5353 124.096 9.22767C124.088 9.35003 124.054 9.46045 123.987 9.57386L125.111 10.4334C124.897 10.5378 124.739 10.6244 124.485 10.7407L123.499 9.9857L122.958 10.2901L123.536 11.2958C123.31 11.4451 123.175 11.5376 122.913 11.6987L121.596 9.22767ZM129.435 6.55666L129.708 9.20081L130.368 9.12919L130.109 6.50294L131.109 6.43729L131.072 5.84937C129.954 5.91502 129.494 5.96277 128.389 6.13587L128.462 6.69693L129.435 6.55666ZM139.108 11.1944L139.776 9.84245L141.58 8.96206C141.391 8.81881 141.186 8.71735 140.994 8.58603L139.751 9.17992L139.523 7.76235C139.263 7.63402 139.108 7.57732 138.838 7.46391L139.198 9.52611L138.528 10.8601L139.108 11.1944ZM131.428 30.933C134.119 30.933 136.309 28.638 136.309 25.8118C136.309 22.9856 134.119 20.6877 131.428 20.6787C128.739 20.6787 126.551 22.9856 126.551 25.8118C126.551 28.638 128.739 30.933 131.428 30.933ZM131.428 30.4346C129.009 30.4346 127.031 28.3485 127.031 25.8118C127.031 23.2572 129.009 21.1831 131.428 21.1831C133.866 21.1831 135.825 23.2572 135.825 25.8118C135.825 28.3605 133.854 30.4346 131.428 30.4346ZM143.657 30.8763C143.86 31.0136 144.094 31.1807 144.306 31.1031C144.452 31.0583 144.576 30.8912 144.655 30.5898C145.611 27.1936 145.611 24.2898 144.655 20.9324C144.596 20.7235 144.503 20.5056 144.337 20.428C144.165 20.3624 143.953 20.437 143.646 20.6548L137.395 25.1194C137.155 25.2896 137.031 25.5223 137.031 25.7611C137.031 26.0028 137.155 26.2356 137.395 26.4027L143.657 30.8763ZM142.279 16.6707C142.288 16.5334 142.206 16.3633 142.025 16.1753C139.703 13.5938 137.318 12.1524 134.049 11.3346C133.866 11.2839 133.651 11.2391 133.511 11.3705C133.364 11.4958 133.322 11.7316 133.35 12.0897L133.891 20.0371C133.908 20.3385 134.038 20.5772 134.229 20.6966C134.438 20.822 134.689 20.7981 134.948 20.6668L141.763 17.2138C141.983 17.1004 142.231 16.9811 142.279 16.7363C142.279 16.7214 142.288 16.7005 142.279 16.6707ZM120.61 16.796C120.638 17.0348 120.897 17.1571 121.123 17.2706L127.93 20.7414C128.2 20.8787 128.451 20.8787 128.657 20.7652C128.849 20.6339 128.973 20.4041 128.99 20.1027L129.539 12.1703C129.57 11.7883 129.519 11.5615 129.387 11.4451C129.243 11.3137 129.029 11.3525 128.826 11.3913C125.562 12.215 123.186 13.6624 120.844 16.229C120.655 16.4558 120.565 16.6438 120.61 16.796ZM119.243 20.7056C119.02 20.5563 118.783 20.3833 118.589 20.4728C118.431 20.5235 118.316 20.6966 118.234 20.9801C117.287 24.3883 117.287 27.2801 118.234 30.6465C118.299 30.8644 118.369 31.0822 118.561 31.1389C118.713 31.2076 118.944 31.1389 119.243 30.9211L125.489 26.4535C125.72 26.2893 125.861 26.0565 125.861 25.8238C125.861 25.5701 125.72 25.3463 125.489 25.1732L119.243 20.7056ZM120.709 34.9291C120.709 35.0664 120.796 35.2365 120.959 35.4155C123.304 38.003 125.678 39.4444 128.936 40.2502C129.145 40.3159 129.35 40.3487 129.494 40.2293C129.643 40.1129 129.683 39.8772 129.658 39.5011C129.658 39.4892 129.105 31.5537 129.105 31.5537C129.083 31.2523 128.973 31.0225 128.773 30.9032C128.57 30.7778 128.316 30.7778 128.045 30.9061L121.244 34.3829C121.007 34.4993 120.751 34.6306 120.714 34.8634C120.714 34.8813 120.709 34.9112 120.709 34.9291ZM133.491 40.1129C133.606 40.2084 133.795 40.2383 134.086 40.1607C137.338 39.34 139.723 37.8925 142.048 35.332C142.186 35.1648 142.338 34.9917 142.293 34.7978C142.248 34.6127 142.102 34.4456 141.783 34.2904L134.965 30.8136C134.708 30.6853 134.455 30.6853 134.249 30.8017C134.049 30.933 133.925 31.1598 133.908 31.4732L133.356 39.3997C133.35 39.6593 133.322 39.9547 133.491 40.1129ZM119.105 10.7795L121.123 13.1402C121.405 13.4595 121.715 13.4207 122.123 13.0835C124.674 10.9855 127.944 9.74098 131.428 9.74098C134.917 9.74098 138.189 10.9795 140.766 13.0835C141.166 13.3968 141.47 13.4595 141.763 13.1402L143.784 10.7795C144.013 10.5199 144.013 10.1588 143.573 9.77381C140.191 7.0073 136.013 5.29726 131.422 5.29726C126.856 5.29726 122.62 7.0073 119.296 9.78575C118.86 10.1588 118.879 10.5199 119.105 10.7795ZM149.238 32.4849L146.329 31.4433C146.177 31.3836 145.78 31.3836 145.574 31.9208C143.226 37.8358 137.758 41.8827 131.428 41.8827C125.091 41.8827 119.525 37.7433 117.276 31.8283C117.109 31.3836 116.701 31.3836 116.546 31.4433L113.654 32.4849C113.341 32.6042 113.152 32.8967 113.318 33.3175C116.157 40.9306 123.22 46.3055 131.428 46.3055C139.635 46.3055 146.73 40.8948 149.579 33.2877C149.726 32.8878 149.548 32.6042 149.238 32.4849ZM113.18 30.8554L116.08 29.969C116.354 29.8855 116.577 29.587 116.554 29.214C115.514 23.5407 116.836 18.9388 120.004 15.2531C120.322 15.0144 120.359 14.519 120.052 14.1847L117.944 11.9584C117.738 11.7107 117.366 11.7107 117.047 12.0539C113.005 16.5215 110.965 23.3766 112.461 30.3869C112.543 30.7241 112.797 30.9688 113.18 30.8554ZM145.876 12.024C145.591 11.657 145.12 11.7107 144.985 11.9673L142.882 14.1847C142.575 14.519 142.603 15.0144 142.925 15.2531C146.096 18.9388 147.42 23.5288 146.38 29.214C146.358 29.587 146.58 29.8855 146.857 29.969L149.762 30.8554C150.149 30.9688 150.397 30.7241 150.478 30.3749C151.975 23.3766 149.926 16.4976 145.876 12.024ZM131.484 28.9066C129.897 28.9066 128.578 27.5189 128.578 25.8327C128.578 24.4927 129.404 23.3199 130.63 22.9289C130.641 22.7916 130.675 22.0933 130.675 22.0933H132.152C132.152 22.0933 132.186 22.7349 132.203 22.8722C133.48 23.2094 134.41 24.4301 134.41 25.8327C134.41 27.5189 133.088 28.9066 131.484 28.9066Z" fill="white"/>
<path d="M40.2494 31.7269L40.3395 33.5592C40.3536 33.8338 40.1704 34.0785 39.9139 34.1322C39.1755 34.2755 38.1608 34.4486 37.5238 34.4486C34.3247 34.4486 33.3495 33.1623 33.3495 28.9514V22.5171H32.1234C31.8302 22.5171 31.5935 22.2665 31.5935 21.9621V20.058C31.5935 19.7506 31.8302 19.5059 32.1234 19.5059H33.3495V17.2438C33.3495 16.9871 33.5158 16.7633 33.7469 16.7036L35.8693 16.1635C36.0271 16.1217 36.1906 16.1605 36.3202 16.2649C36.4471 16.3694 36.5232 16.5275 36.5232 16.7006V19.5059H39.7505C40.0464 19.5059 40.2804 19.7506 40.2804 20.058V21.9621C40.2804 22.2665 40.0464 22.5171 39.7505 22.5171H36.5232V28.4829C36.5232 30.5451 36.5936 31.2613 37.9691 31.2613C38.4793 31.2613 39.2741 31.2225 39.6997 31.2016C39.9844 31.1956 40.2381 31.4195 40.2494 31.7269ZM30.2349 26.7281C30.2349 32.0432 28.3127 34.4128 24.0002 34.4128C19.6681 34.4128 17.7345 32.0432 17.7345 26.7281C17.7345 21.4905 19.6681 19.1568 24.0002 19.1568C28.2535 19.1568 30.2349 21.5592 30.2349 26.7281ZM27.0077 26.7281C27.0077 23.4632 26.1621 22.1948 24.0002 22.1948C21.7595 22.1948 20.9646 23.3826 20.9646 26.7281C20.9646 29.7632 21.4466 31.4045 24.0002 31.4045C26.5144 31.4045 27.0077 29.6915 27.0077 26.7281ZM100.962 31.7269L101.052 33.5592C101.066 33.8338 100.883 34.0785 100.623 34.1322C99.8877 34.2755 98.873 34.4486 98.236 34.4486C95.0369 34.4486 94.0617 33.1623 94.0617 28.9514V22.5171H92.8328C92.5425 22.5171 92.3057 22.2665 92.3057 21.9621V20.058C92.3057 19.7506 92.5425 19.5059 92.8328 19.5059H94.0617V17.2438C94.0617 16.9871 94.228 16.7633 94.4619 16.7036L96.5815 16.1635C96.7394 16.1217 96.9028 16.1605 97.0325 16.2649C97.1593 16.3694 97.2354 16.5275 97.2354 16.7006V19.5059H100.463C100.759 19.5059 100.993 19.7506 100.993 20.058V21.9621C100.993 22.2665 100.759 22.5171 100.463 22.5171H97.2354V28.4829C97.2354 30.5451 97.3059 31.2613 98.6814 31.2613C99.1915 31.2613 99.9864 31.2225 100.412 31.2016C100.697 31.1956 100.95 31.4195 100.962 31.7269ZM15.801 33.3175C15.8714 33.4876 15.8573 33.6846 15.7615 33.8457C15.6629 34.0009 15.4994 34.0964 15.3162 34.0964H12.8556C12.647 34.0964 12.4581 33.9651 12.3736 33.7652L9.22241 26.3132C7.65246 26.3013 6.29108 26.2148 5.55543 26.161V33.5413C5.55543 33.8487 5.32431 34.0964 5.03118 34.0964H2.82705C2.53673 34.0964 2.29997 33.8487 2.29997 33.5413V14.8474C2.29997 14.5638 2.50291 14.3281 2.77068 14.2982C5.59208 13.964 7.85258 13.9282 8.69251 13.9282C8.98283 13.9282 9.13785 13.9312 9.13785 13.9312C14.5552 13.9312 15.6939 17.2915 15.6939 20.1088C15.6939 22.4604 14.6256 24.1585 12.4243 25.3075L15.801 33.3175ZM9.12658 17.1393H7.96532C6.66877 17.1393 5.93031 17.2408 5.55543 17.3184V23.0842C6.17552 23.1289 7.36778 23.1946 8.97155 23.1767C11.0404 23.1528 12.3228 22.0008 12.3228 20.1685C12.3228 18.7031 11.4857 17.1393 9.12658 17.1393ZM53.1979 24.0959V33.7682C53.1979 33.9293 53.1303 34.0815 53.0175 34.1889C52.8991 34.2934 52.7469 34.3411 52.5976 34.3173C51.518 34.1591 51.0051 33.804 50.4949 33.3921C50.4752 33.4041 48.0906 34.4128 45.9598 34.4128C43.3949 34.4128 41.9236 32.7147 41.9236 29.7393C41.9236 26.8385 43.2709 25.5522 46.5742 25.2926L50.0242 25.0031V24.1227C50.0242 23.0096 49.3928 22.3709 48.2964 22.3709C46.7856 22.3709 44.6294 22.5559 43.4794 22.6634C43.3357 22.6813 43.1919 22.6305 43.082 22.5321C42.9749 22.4336 42.9101 22.2873 42.9045 22.1381L42.834 20.2878C42.8255 20.0073 43.0144 19.7626 43.2793 19.7208C44.3053 19.5477 46.8646 19.1568 48.4655 19.1568C51.6928 19.1568 53.1979 20.7265 53.1979 24.0959ZM46.9604 27.7756C45.7146 27.9009 45.1227 28.4978 45.1227 29.6497C45.1227 30.357 45.3087 31.5538 46.5432 31.5538C48.0117 31.5538 50.0016 30.9718 50.0242 30.9658V27.6055L46.9604 27.7756ZM77.1418 24.0959V33.7682C77.1418 33.9293 77.0741 34.0815 76.9614 34.1889C76.843 34.2934 76.6908 34.3411 76.5414 34.3173C75.4647 34.1591 74.9517 33.804 74.4416 33.3921C74.419 33.4041 72.0345 34.4128 69.9036 34.4128C67.3387 34.4128 65.8674 32.7147 65.8674 29.7393C65.8674 26.8385 67.2147 25.5522 70.5181 25.2926L73.968 25.0031V24.1227C73.968 23.0096 73.3395 22.3709 72.2402 22.3709C70.7295 22.3709 68.5733 22.5559 67.4233 22.6634C67.2795 22.6813 67.133 22.6305 67.0259 22.5321C66.9188 22.4336 66.8539 22.2873 66.8455 22.1381L66.7778 20.2878C66.7666 20.0073 66.9582 19.7626 67.2204 19.7208C68.2491 19.5477 70.8112 19.1568 72.4094 19.1568C75.6395 19.1568 77.1418 20.7265 77.1418 24.0959ZM70.9071 27.7756C69.6584 27.9009 69.0693 28.4978 69.0693 29.6497C69.0693 30.357 69.2526 31.5538 70.4899 31.5538C71.9556 31.5538 73.9483 30.9718 73.968 30.9658V27.6055L70.9071 27.7756ZM63.4998 19.3955C62.0962 19.4821 60.7151 20.3236 59.8554 20.9653V20.058C59.8554 19.7506 59.6186 19.5059 59.3283 19.5059H57.2088C56.9156 19.5059 56.6789 19.7506 56.6789 20.058V33.5413C56.6789 33.8487 56.9156 34.0964 57.2088 34.0964H59.3283C59.6186 34.0964 59.8554 33.8487 59.8554 33.5413V24.2212C60.3346 23.8034 61.8143 22.6395 63.5787 22.4754C63.8493 22.4485 64.0579 22.2098 64.0579 21.9233V19.9476C64.0579 19.7924 63.9987 19.6492 63.8916 19.5447C63.7873 19.4373 63.6408 19.3806 63.4998 19.3955ZM90.3863 31.4314L90.4539 33.2817C90.4652 33.5622 90.2735 33.807 90.0114 33.8487C88.9826 34.0218 87.345 34.4128 85.7469 34.4128C81.4147 34.4128 79.484 32.079 79.484 26.8415C79.484 26.8027 79.484 26.7669 79.484 26.7281C79.484 21.4905 81.4147 19.1568 85.7469 19.1568C87.345 19.1568 88.9826 19.5477 90.0114 19.7208C90.2735 19.7626 90.4652 20.0073 90.4539 20.2878L90.3863 22.1381C90.3806 22.2873 90.313 22.4336 90.2087 22.5321C90.0988 22.6305 89.9522 22.6813 89.8085 22.6634C88.6585 22.5559 87.2576 22.1948 85.7469 22.1948C83.5061 22.1948 82.7113 23.3826 82.7113 26.7281C82.7113 26.8564 82.7141 26.9787 82.7141 27.1011C82.7141 27.1727 82.7141 27.2503 82.7169 27.319C82.7226 27.4264 82.7254 27.5309 82.731 27.6323C82.7338 27.7278 82.7395 27.8263 82.7451 27.9158C82.7479 27.9666 82.7507 28.0143 82.7564 28.0651C82.948 30.4794 83.8021 31.3717 85.7469 31.3717C87.2576 31.3717 88.6585 31.0136 89.8085 30.9062C89.9522 30.8912 90.0988 30.936 90.2087 31.0375C90.313 31.136 90.3806 31.2822 90.3863 31.4314Z" fill="white"/>
<path d="M10.0482 51.1878L8.41628 46.8068H3.15681L1.54458 51.1878H0L5.18619 37.3553H6.46864L11.6266 51.1878H10.0482ZM7.93994 45.3624L6.41509 41.0947C6.21779 40.5546 6.01485 39.892 5.80346 39.1072C5.6738 39.71 5.48496 40.3725 5.23974 41.0947L3.69516 45.3624H7.93994ZM17.6922 40.671C18.1291 40.671 18.5209 40.7098 18.8676 40.7844L18.6618 42.2348C18.2531 42.1423 17.8952 42.0945 17.5851 42.0945C16.7875 42.0945 16.1054 42.4317 15.5388 43.1122C14.9751 43.7896 14.6961 44.6342 14.6961 45.6459V51.1878H13.2051V40.859H14.434L14.6059 42.7719H14.6764C15.0428 42.1005 15.4825 41.5812 15.9954 41.2171C16.5112 40.853 17.075 40.671 17.6922 40.671ZM26.754 51.1878L26.458 49.7165H26.3847C25.8943 50.3642 25.4039 50.8029 24.9134 51.0356C24.4286 51.2624 23.8226 51.3758 23.0926 51.3758C22.1174 51.3758 21.3508 51.1102 20.7955 50.585C20.2459 50.0568 19.9696 49.3047 19.9696 48.3318C19.9696 46.2457 21.5593 45.1535 24.733 45.052L26.4016 44.9953V44.3566C26.4016 43.5449 26.2354 42.948 25.8999 42.566C25.5702 42.1751 25.0431 41.9811 24.3131 41.9811C23.4929 41.9811 22.5656 42.2437 21.5311 42.7719L21.0745 41.5752C21.5593 41.3007 22.0864 41.0828 22.6614 40.9246C23.242 40.7694 23.8226 40.6889 24.4033 40.6889C25.5758 40.6889 26.4411 40.9634 27.0048 41.5096C27.5714 42.0557 27.856 42.9331 27.856 44.1388V51.1878H26.754ZM23.3886 50.0836C24.3159 50.0836 25.0431 49.818 25.5673 49.2838C26.1001 48.7496 26.3678 48.0035 26.3678 47.0396V46.1085L24.8768 46.1741C23.693 46.2189 22.839 46.4129 22.3119 46.759C21.7904 47.0963 21.5311 47.6275 21.5311 48.3497C21.5311 48.9167 21.6918 49.3465 22.0159 49.6419C22.3457 49.9374 22.8023 50.0836 23.3886 50.0836ZM37.6252 49.8031H37.5463C36.8586 50.8506 35.8298 51.3758 34.46 51.3758C33.1719 51.3758 32.1713 50.9133 31.4525 49.9911C30.7423 49.066 30.3871 47.7528 30.3871 46.0518C30.3871 44.3477 30.7451 43.0256 31.4638 42.0855C32.1797 41.1425 33.1803 40.671 34.46 40.671C35.7932 40.671 36.8163 41.1813 37.5266 42.199H37.645L37.5801 41.4529L37.5463 40.7277V36.5257H39.0345V51.1878H37.8225L37.6252 49.8031ZM34.646 50.0657C35.6635 50.0657 36.3992 49.7762 36.8529 49.2003C37.3152 48.6153 37.5463 47.6752 37.5463 46.38V46.0518C37.5463 44.5894 37.3124 43.5449 36.8445 42.9242C36.3851 42.2945 35.6466 41.9811 34.6291 41.9811C33.7553 41.9811 33.0873 42.3392 32.6194 43.0555C32.16 43.7657 31.9289 44.7715 31.9289 46.0697C31.9289 47.3887 32.16 48.3855 32.6194 49.057C33.0817 49.7285 33.7553 50.0657 34.646 50.0657ZM52.8146 38.6446C51.3715 38.6446 50.2327 39.1519 49.3956 40.1636C48.5641 41.1664 48.1498 42.5451 48.1498 44.2999C48.1498 46.1025 48.5501 47.4962 49.3505 48.484C50.1595 49.4629 51.3066 49.9523 52.7977 49.9523C53.7109 49.9523 54.7538 49.7792 55.9263 49.433V50.8387C55.0187 51.1968 53.8969 51.3758 52.5637 51.3758C50.6302 51.3758 49.1391 50.7611 48.085 49.5285C47.0393 48.296 46.515 46.5472 46.515 44.279C46.515 42.8615 46.7687 41.617 47.2704 40.5486C47.7778 39.4802 48.5078 38.6565 49.4576 38.0805C50.416 37.5016 51.5406 37.2121 52.8315 37.2121C54.2069 37.2121 55.4105 37.4777 56.4393 38.0059L55.7938 39.3817C54.7988 38.8893 53.8067 38.6446 52.8146 38.6446ZM62.7191 51.3758C61.2647 51.3758 60.1175 50.9103 59.2748 49.9822C58.4348 49.051 58.0177 47.7588 58.0177 46.1085C58.0177 44.4432 58.4066 43.1211 59.1846 42.1423C59.9681 41.1604 61.0166 40.671 62.3329 40.671C63.5646 40.671 64.5399 41.0977 65.2586 41.9513C65.9745 42.8018 66.3353 43.9209 66.3353 45.3176V46.3054H59.5594C59.5904 47.5171 59.8808 48.4392 60.4304 49.066C60.9885 49.6957 61.7664 50.009 62.7726 50.009C63.8296 50.009 64.8781 49.7762 65.9125 49.3107V50.7074C65.3854 50.9461 64.8866 51.1162 64.413 51.2147C63.948 51.3221 63.3814 51.3758 62.7191 51.3758ZM62.316 41.9811C61.524 41.9811 60.8954 42.2497 60.4219 42.7899C59.954 43.333 59.6806 44.0791 59.5961 45.0341H64.7372C64.7372 44.0463 64.5286 43.2942 64.1086 42.7719C63.6915 42.2437 63.0911 41.9811 62.316 41.9811ZM72.057 50.0836C72.322 50.0836 72.5756 50.0657 72.8209 50.0269C73.0661 49.9851 73.2606 49.9404 73.4043 49.8956V51.0923C73.2408 51.1759 73.0012 51.2416 72.6856 51.2893C72.3755 51.346 72.0937 51.3758 71.8428 51.3758C69.9403 51.3758 68.9904 50.3224 68.9904 48.2184V42.0766H67.5811V41.3216L68.9904 40.671L69.6161 38.4655H70.4786V40.859H73.331V42.0766H70.4786V48.1527C70.4786 48.7735 70.6195 49.251 70.9014 49.5852C71.1804 49.9195 71.5666 50.0836 72.057 50.0836ZM81.4232 51.1878L81.1272 49.7165H81.0567C80.5663 50.3642 80.0731 50.8029 79.5855 51.0356C79.1007 51.2624 78.4918 51.3758 77.7646 51.3758C76.7894 51.3758 76.0228 51.1102 75.4675 50.585C74.9151 50.0568 74.6417 49.3047 74.6417 48.3318C74.6417 46.2457 76.2285 45.1535 79.4051 45.052L81.0737 44.9953V44.3566C81.0737 43.5449 80.9074 42.948 80.572 42.566C80.2422 42.1751 79.7123 41.9811 78.9823 41.9811C78.1649 41.9811 77.2376 42.2437 76.2032 42.7719L75.7437 41.5752C76.2285 41.3007 76.7584 41.0828 77.3334 40.9246C77.914 40.7694 78.4918 40.6889 79.0725 40.6889C80.245 40.6889 81.1131 40.9634 81.674 41.5096C82.2434 42.0557 82.528 42.9331 82.528 44.1388V51.1878H81.4232ZM78.0606 50.0836C78.9851 50.0836 79.7123 49.818 80.2394 49.2838C80.7721 48.7496 81.037 48.0035 81.037 47.0396V46.1085L79.5488 46.1741C78.365 46.2189 77.5082 46.4129 76.9839 46.759C76.4625 47.0963 76.2032 47.6275 76.2032 48.3497C76.2032 48.9167 76.3638 49.3465 76.6879 49.6419C77.0149 49.9374 77.4743 50.0836 78.0606 50.0836ZM88.7797 50.0836C89.0446 50.0836 89.2983 50.0657 89.5435 50.0269C89.7887 49.9851 89.9832 49.9404 90.1269 49.8956V51.0923C89.9635 51.1759 89.7239 51.2416 89.4082 51.2893C89.0953 51.346 88.8163 51.3758 88.5655 51.3758C86.6629 51.3758 85.713 50.3224 85.713 48.2184V42.0766H84.3038V41.3216L85.713 40.671L86.3388 38.4655H87.2013V40.859H90.0537V42.0766H87.2013V48.1527C87.2013 48.7735 87.3422 49.251 87.624 49.5852C87.9031 49.9195 88.2892 50.0836 88.7797 50.0836ZM96.2545 51.3758C94.8002 51.3758 93.6502 50.9103 92.8074 49.9822C91.9703 49.051 91.5531 47.7588 91.5531 46.1085C91.5531 44.4432 91.9393 43.1211 92.7172 42.1423C93.5036 41.1604 94.5521 40.671 95.8684 40.671C97.1001 40.671 98.0753 41.0977 98.7913 41.9513C99.51 42.8018 99.868 43.9209 99.868 45.3176V46.3054H93.0949C93.1259 47.5171 93.4162 48.4392 93.9658 49.066C94.5211 49.6957 95.3019 50.009 96.3081 50.009C97.3651 50.009 98.4108 49.7762 99.4452 49.3107V50.7074C98.9209 50.9461 98.422 51.1162 97.9485 51.2147C97.4834 51.3221 96.9169 51.3758 96.2545 51.3758ZM95.8487 41.9811C95.0595 41.9811 94.4281 42.2497 93.9574 42.7899C93.4895 43.333 93.2161 44.0791 93.1316 45.0341H98.2726C98.2726 44.0463 98.0641 43.2942 97.6441 42.7719C97.2241 42.2437 96.6266 41.9811 95.8487 41.9811Z" fill="white"/>
</svg>
